<?xml version="1.0" encoding="UTF-8"?>
<svg width="1600px" height="600px" viewBox="0 0 1600 600" version="1.1" xmlns="http://www.w3.org/2000/svg" xmlns:xlink="http://www.w3.org/1999/xlink">
    <title>编组 4</title>
    <defs>
        <linearGradient x1="12.6945551%" y1="78.2395208%" x2="12.6945551%" y2="-17.8391327%" id="linearGradient-1">
            <stop stop-color="#508CCD" stop-opacity="0" offset="0%"></stop>
            <stop stop-color="#4B83C0" offset="61.8302165%"></stop>
            <stop stop-color="#305680" offset="100%"></stop>
        </linearGradient>
        <linearGradient x1="12.6945551%" y1="78.2395208%" x2="12.6945551%" y2="-17.8391327%" id="linearGradient-2">
            <stop stop-color="#FFFFFF" stop-opacity="0" offset="0%"></stop>
            <stop stop-color="#FFFFFF" offset="61.8302165%"></stop>
            <stop stop-color="#FFFFFF" offset="100%"></stop>
        </linearGradient>
        <linearGradient x1="0%" y1="48.9135414%" x2="100%" y2="54.2196102%" id="linearGradient-3">
            <stop stop-color="#508CCD" offset="0%"></stop>
            <stop stop-color="#305680" offset="100%"></stop>
        </linearGradient>
        <linearGradient x1="0%" y1="48.9135414%" x2="100%" y2="54.2196102%" id="linearGradient-4">
            <stop stop-color="#FFFFFF" offset="0%"></stop>
            <stop stop-color="#FFFFFF" offset="100%"></stop>
        </linearGradient>
        <linearGradient x1="128.739798%" y1="50%" x2="5.76121188%" y2="50%" id="linearGradient-5">
            <stop stop-color="#508CCD" offset="0%"></stop>
            <stop stop-color="#305680" offset="100%"></stop>
        </linearGradient>
        <polygon id="path-6" points="128.046875 0.537109375 128.046875 19.3359375 74.8730469 19.3359375 74.8730469 158.339844 53.1738281 158.339844 53.1738281 19.3359375 0 19.3359375 0 0.537109375"></polygon>
        <linearGradient x1="128.739798%" y1="50%" x2="5.76121188%" y2="50%" id="linearGradient-7">
            <stop stop-color="#FFFFFF" offset="0%"></stop>
            <stop stop-color="#FFFFFF" offset="100%"></stop>
        </linearGradient>
        <linearGradient x1="128.739798%" y1="50%" x2="5.76121188%" y2="50%" id="linearGradient-8">
            <stop stop-color="#508CCD" offset="0%"></stop>
            <stop stop-color="#305680" offset="100%"></stop>
        </linearGradient>
        <path d="M145.019531,0 L164.355469,0 L164.355469,58.8671875 C168.938802,53.0664062 173.056641,48.984375 176.708984,46.6210938 C182.939453,42.5390625 190.709635,40.4980469 200.019531,40.4980469 C216.705729,40.4980469 228.020833,46.3346354 233.964844,58.0078125 C237.1875,64.3815104 238.798828,73.2259115 238.798828,84.5410156 L238.798828,158.339844 L218.925781,158.339844 L218.925781,85.8300781 C218.925781,77.3795573 217.851562,71.1848958 215.703125,67.2460938 C212.19401,60.9440104 205.605469,57.7929688 195.9375,57.7929688 C187.916667,57.7929688 180.647786,60.5501302 174.130859,66.0644531 C167.613932,71.578776 164.355469,81.9986979 164.355469,97.3242188 L164.355469,158.339844 L145.019531,158.339844 L145.019531,0 Z" id="path-9"></path>
        <linearGradient x1="128.739798%" y1="50%" x2="5.76121188%" y2="50%" id="linearGradient-10">
            <stop stop-color="#FFFFFF" offset="0%"></stop>
            <stop stop-color="#FFFFFF" offset="100%"></stop>
        </linearGradient>
        <linearGradient x1="128.739798%" y1="50%" x2="5.76121188%" y2="50%" id="linearGradient-11">
            <stop stop-color="#508CCD" offset="0%"></stop>
            <stop stop-color="#305680" offset="100%"></stop>
        </linearGradient>
        <path d="M267.373047,43.828125 L287.03125,43.828125 L287.03125,158.339844 L267.373047,158.339844 L267.373047,43.828125 Z M267.373047,0.537109375 L287.03125,0.537109375 L287.03125,22.4511719 L267.373047,22.4511719 L267.373047,0.537109375 Z" id="path-12"></path>
        <linearGradient x1="128.739798%" y1="50%" x2="5.76121188%" y2="50%" id="linearGradient-13">
            <stop stop-color="#FFFFFF" offset="0%"></stop>
            <stop stop-color="#FFFFFF" offset="100%"></stop>
        </linearGradient>
        <linearGradient x1="128.739798%" y1="50%" x2="5.76121188%" y2="50%" id="linearGradient-14">
            <stop stop-color="#508CCD" offset="0%"></stop>
            <stop stop-color="#305680" offset="100%"></stop>
        </linearGradient>
        <path d="M316.25,43.2910156 L334.619141,43.2910156 L334.619141,59.6191406 C340.061849,52.8873698 345.826823,48.0533854 351.914062,45.1171875 C358.001302,42.1809896 364.76888,40.7128906 372.216797,40.7128906 C388.544922,40.7128906 399.573568,46.40625 405.302734,57.7929688 C408.453776,64.0234375 410.029297,72.9394531 410.029297,84.5410156 L410.029297,158.339844 L390.371094,158.339844 L390.371094,85.8300781 C390.371094,78.811849 389.332682,73.1542969 387.255859,68.8574219 C383.818359,61.6959635 377.587891,58.1152344 368.564453,58.1152344 C363.98112,58.1152344 360.221354,58.5807292 357.285156,59.5117188 C351.985677,61.0872396 347.330729,64.2382812 343.320312,68.9648438 C340.097656,72.7604167 338.00293,76.6813151 337.036133,80.7275391 C336.069336,84.773763 335.585938,90.5566406 335.585938,98.0761719 L335.585938,158.339844 L316.25,158.339844 L316.25,43.2910156 Z" id="path-15"></path>
        <linearGradient x1="128.739798%" y1="50%" x2="5.76121188%" y2="50%" id="linearGradient-16">
            <stop stop-color="#FFFFFF" offset="0%"></stop>
            <stop stop-color="#FFFFFF" offset="100%"></stop>
        </linearGradient>
        <linearGradient x1="128.739798%" y1="50%" x2="5.76121188%" y2="50%" id="linearGradient-17">
            <stop stop-color="#508CCD" offset="0%"></stop>
            <stop stop-color="#305680" offset="100%"></stop>
        </linearGradient>
        <path d="M479.208984,41.25 C488.232422,41.25 496.110026,43.4700521 502.841797,47.9101562 C506.494141,50.4166667 510.218099,54.0690104 514.013672,58.8671875 L514.013672,44.3652344 L531.845703,44.3652344 L531.845703,148.994141 C531.845703,163.603516 529.697266,175.133464 525.400391,183.583984 C517.379557,199.195964 502.233073,207.001953 479.960938,207.001953 C467.571615,207.001953 457.151693,204.226888 448.701172,198.676758 C440.250651,193.126628 435.524089,184.443359 434.521484,172.626953 L454.179688,172.626953 C455.110677,177.783203 456.972656,181.757812 459.765625,184.550781 C464.134115,188.847656 471.009115,190.996094 480.390625,190.996094 C495.214844,190.996094 504.91862,185.768229 509.501953,175.3125 C512.223307,169.153646 513.476562,158.160807 513.261719,142.333984 C509.394531,148.20638 504.739583,152.57487 499.296875,155.439453 C493.854167,158.304036 486.656901,159.736328 477.705078,159.736328 C465.244141,159.736328 454.34082,155.314128 444.995117,146.469727 C435.649414,137.625326 430.976562,122.998047 430.976562,102.587891 C430.976562,83.3235677 435.685221,68.2845052 445.102539,57.4707031 C454.519857,46.656901 465.888672,41.25 479.208984,41.25 Z M514.013672,100.332031 C514.013672,86.0807292 511.077474,75.5175781 505.205078,68.6425781 C499.332682,61.7675781 491.848958,58.3300781 482.753906,58.3300781 C469.147135,58.3300781 459.83724,64.703776 454.824219,77.4511719 C452.174479,84.2545573 450.849609,93.1705729 450.849609,104.199219 C450.849609,117.161458 453.481445,127.026367 458.745117,133.793945 C464.008789,140.561523 471.080729,143.945312 479.960938,143.945312 C493.854167,143.945312 503.629557,137.679036 509.287109,125.146484 C512.438151,118.056641 514.013672,109.785156 514.013672,100.332031 Z" id="path-18"></path>
        <linearGradient x1="128.739798%" y1="50%" x2="5.76121188%" y2="50%" id="linearGradient-19">
            <stop stop-color="#FFFFFF" offset="0%"></stop>
            <stop stop-color="#FFFFFF" offset="100%"></stop>
        </linearGradient>
        <linearGradient x1="128.739798%" y1="50%" x2="5.76121188%" y2="50%" id="linearGradient-20">
            <stop stop-color="#508CCD" offset="0%"></stop>
            <stop stop-color="#305680" offset="100%"></stop>
        </linearGradient>
        <path d="M572.451172,122.246094 C573.024089,128.691406 574.635417,133.632812 577.285156,137.070312 C582.154948,143.300781 590.605469,146.416016 602.636719,146.416016 C609.798177,146.416016 616.10026,144.858398 621.542969,141.743164 C626.985677,138.62793 629.707031,133.811849 629.707031,127.294922 C629.707031,122.353516 627.522786,118.59375 623.154297,116.015625 C620.361328,114.440104 614.847005,112.613932 606.611328,110.537109 L591.25,106.669922 C581.438802,104.235026 574.205729,101.513672 569.550781,98.5058594 C561.24349,93.2779948 557.089844,86.0449219 557.089844,76.8066406 C557.089844,65.921224 561.010742,57.1126302 568.852539,50.3808594 C576.694336,43.6490885 587.239583,40.2832031 600.488281,40.2832031 C617.81901,40.2832031 630.315755,45.3678385 637.978516,55.5371094 C642.776693,61.9824219 645.104167,68.9290365 644.960938,76.3769531 L626.699219,76.3769531 C626.341146,72.0084635 624.801432,68.0338542 622.080078,64.453125 C617.639974,59.3684896 609.941406,56.8261719 598.984375,56.8261719 C591.679688,56.8261719 586.147461,58.2226562 582.387695,61.015625 C578.62793,63.8085938 576.748047,67.4967448 576.748047,72.0800781 C576.748047,77.093099 579.21875,81.1035156 584.160156,84.1113281 C587.02474,85.9016927 591.25,87.4772135 596.835938,88.8378906 L609.619141,91.953125 C623.51237,95.3190104 632.822266,98.577474 637.548828,101.728516 C645.068359,106.669922 648.828125,114.440104 648.828125,125.039062 C648.828125,135.279948 644.943034,144.124349 637.172852,151.572266 C629.402669,159.020182 617.568359,162.744141 601.669922,162.744141 C584.554036,162.744141 572.433268,158.859049 565.307617,151.088867 C558.181966,143.318685 554.36849,133.704427 553.867188,122.246094 L572.451172,122.246094 Z" id="path-21"></path>
        <linearGradient x1="128.739798%" y1="50%" x2="5.76121188%" y2="50%" id="linearGradient-22">
            <stop stop-color="#FFFFFF" offset="0%"></stop>
            <stop stop-color="#FFFFFF" offset="100%"></stop>
        </linearGradient>
        <linearGradient x1="128.739798%" y1="50%" x2="5.76121188%" y2="50%" id="linearGradient-23">
            <stop stop-color="#508CCD" offset="0%"></stop>
            <stop stop-color="#305680" offset="100%"></stop>
        </linearGradient>
        <polygon id="path-24" points="806.52 43.2910156 831.549297 43.2910156 857.975078 83.7890625 884.723125 43.2910156 908.248516 43.828125 869.469219 99.3652344 909.967266 158.339844 885.260234 158.339844 856.686016 115.15625 828.971172 158.339844 804.478984 158.339844 844.977031 99.3652344"></polygon>
        <linearGradient x1="128.739798%" y1="50%" x2="5.76121188%" y2="50%" id="linearGradient-25">
            <stop stop-color="#FFFFFF" offset="0%"></stop>
            <stop stop-color="#FFFFFF" offset="100%"></stop>
        </linearGradient>
        <linearGradient x1="100%" y1="100%" x2="-102.127686%" y2="100%" id="linearGradient-26">
            <stop stop-color="#508CCD" offset="0%"></stop>
            <stop stop-color="#305680" offset="100%"></stop>
        </linearGradient>
        <linearGradient x1="100%" y1="100%" x2="-102.127686%" y2="100%" id="linearGradient-27">
            <stop stop-color="#FFFFFF" offset="0%"></stop>
            <stop stop-color="#FFFFFF" offset="100%"></stop>
        </linearGradient>
    </defs>
    <g id="页面-1" stroke="none" stroke-width="1" fill="none" fill-rule="evenodd">
        <g id="编组-4">
            <rect id="矩形" fill-opacity="0" fill="#FFFFFF" x="0" y="0" width="1600" height="600"></rect>
            <g id="编组-3" transform="translate(172.000000, 159.627334)" fill-rule="nonzero">
                <path d="M213.566755,14.1341559 L213.807197,14.2481209 C214.121857,14.3791341 214.433093,14.5254945 214.739964,14.6874548 C214.781039,14.7072638 214.821965,14.7268117 214.862884,14.7463784 L214.861,14.752 L215.120548,14.8976658 C220.41313,17.9533396 222.283539,24.6600872 219.387133,29.9996367 L219.238334,30.2654516 C216.131732,35.6462436 209.25134,37.4898391 203.870548,34.3832374 C203.66449,34.2642698 203.46362,34.139768 203.268016,34.0100279 L203.252776,34.027043 L203.252776,34.027043 C167.112116,17.7202627 123.914258,18.4531483 86.958059,39.78982 C28.0476257,73.8017745 6.54769557,147.726523 36.8948741,207.685921 C32.1178328,212.627511 27.2384392,217.671075 22.2606075,222.814576 L20.1212357,225.025046 C-21.3001205,153.281153 3.28115277,61.542592 75.0250463,20.1212357 C119.093345,-5.32160848 170.70556,-5.86189666 213.566755,14.1341559 Z" id="形状结合" fill="url(#linearGradient-2)" style="mix-blend-mode: multiply;"></path>
                <path d="M293.566755,88.1341559 L293.807197,88.2481209 C294.121857,88.3791341 294.433093,88.5254945 294.739964,88.6874548 C294.781039,88.7072638 294.821965,88.7268117 294.862884,88.7463784 L294.861,88.752 L295.120548,88.8976658 C300.41313,91.9533396 302.283539,98.6600872 299.387133,103.999637 L299.238334,104.265452 C296.131732,109.646244 289.25134,111.489839 283.870548,108.383237 C283.66449,108.26427 283.46362,108.139768 283.268016,108.010028 L283.252776,108.027043 L283.252776,108.027043 C247.112116,91.7202627 203.914258,92.4531483 166.958059,113.78982 C108.047626,147.801775 86.5476956,221.726523 116.894874,281.685921 C112.117833,286.627511 107.238439,291.671075 102.260608,296.814576 L100.121236,299.025046 C58.6998795,227.281153 83.2811528,135.542592 155.025046,94.1212357 C199.093345,68.6783915 250.70556,68.1381033 293.566755,88.1341559 Z" id="形状结合" fill="url(#linearGradient-2)" style="mix-blend-mode: multiply;" transform="translate(190.373713, 186.512523) scale(-1, -1) translate(-190.373713, -186.512523) "></path>
                <g id="编组备份" transform="translate(61.121236, 60.372666)" fill="url(#linearGradient-4)">
                    <ellipse id="椭圆形" style="mix-blend-mode: multiply;" transform="translate(89.000000, 89.000000) rotate(-45.000000) translate(-89.000000, -89.000000) " cx="89" cy="89" rx="95.8971482" ry="29.9678588"></ellipse>
                    <ellipse id="椭圆形" style="mix-blend-mode: multiply;" transform="translate(89.000000, 89.000000) rotate(-315.000000) translate(-89.000000, -89.000000) " cx="89" cy="89" rx="95.8971482" ry="29.9678588"></ellipse>
                </g>
                <g id="Things-x" transform="translate(343.331555, 57.032822)">
                    <g id="路径" style="mix-blend-mode: multiply;">
                        <use fill="#FFFFFF" xlink:href="#path-6"></use>
                        <use fill="url(#linearGradient-7)" xlink:href="#path-6"></use>
                    </g>
                    <g id="路径" style="mix-blend-mode: multiply;">
                        <use fill="#FFFFFF" xlink:href="#path-9"></use>
                        <use fill="url(#linearGradient-10)" xlink:href="#path-9"></use>
                    </g>
                    <g id="形状" style="mix-blend-mode: multiply;">
                        <use fill="#FFFFFF" xlink:href="#path-12"></use>
                        <use fill="url(#linearGradient-13)" xlink:href="#path-12"></use>
                    </g>
                    <g id="路径" style="mix-blend-mode: multiply;">
                        <use fill="#FFFFFF" xlink:href="#path-15"></use>
                        <use fill="url(#linearGradient-16)" xlink:href="#path-15"></use>
                    </g>
                    <g id="形状" style="mix-blend-mode: multiply;">
                        <use fill="#FFFFFF" xlink:href="#path-18"></use>
                        <use fill="url(#linearGradient-19)" xlink:href="#path-18"></use>
                    </g>
                    <g id="路径" style="mix-blend-mode: multiply;">
                        <use fill="#FFFFFF" xlink:href="#path-21"></use>
                        <use fill="url(#linearGradient-22)" xlink:href="#path-21"></use>
                    </g>
                    <g id="路径" style="mix-blend-mode: multiply;">
                        <use fill="#FFFFFF" xlink:href="#path-24"></use>
                        <use fill="url(#linearGradient-25)" xlink:href="#path-24"></use>
                    </g>
                </g>
                <rect id="形状结合" fill="url(#linearGradient-27)" style="mix-blend-mode: multiply;" x="1039.62776" y="142.372666" width="80" height="20" rx="10"></rect>
            </g>
        </g>
    </g>
</svg>
