<?xml version="1.0" encoding="UTF-8"?>
<svg width="320px" height="320px" viewBox="0 0 320 320" version="1.1" xmlns="http://www.w3.org/2000/svg" xmlns:xlink="http://www.w3.org/1999/xlink">
    <title>编组</title>
    <defs>
        <linearGradient x1="12.6945551%" y1="78.2395208%" x2="12.6945551%" y2="-17.8391327%" id="linearGradient-1">
            <stop stop-color="#508CCD" stop-opacity="0" offset="0%"></stop>
            <stop stop-color="#4B83C0" offset="61.8302165%"></stop>
            <stop stop-color="#305680" offset="100%"></stop>
        </linearGradient>
        <linearGradient x1="12.6945551%" y1="78.2395208%" x2="12.6945551%" y2="-17.8391327%" id="linearGradient-2">
            <stop stop-color="#FFFFFF" stop-opacity="0" offset="0%"></stop>
            <stop stop-color="#FFFFFF" offset="61.8302165%"></stop>
            <stop stop-color="#FFFFFF" offset="100%"></stop>
        </linearGradient>
        <linearGradient x1="0%" y1="48.9135414%" x2="100%" y2="54.2196102%" id="linearGradient-3">
            <stop stop-color="#508CCD" offset="0%"></stop>
            <stop stop-color="#305680" offset="100%"></stop>
        </linearGradient>
        <linearGradient x1="0%" y1="48.9135414%" x2="100%" y2="54.2196102%" id="linearGradient-4">
            <stop stop-color="#FFFFFF" offset="0%"></stop>
            <stop stop-color="#FFFFFF" offset="100%"></stop>
        </linearGradient>
    </defs>
    <g id="页面-1" stroke="none" stroke-width="1" fill="none" fill-rule="evenodd">
        <g id="编组">
            <rect id="矩形" x="0" y="0" width="320" height="320"></rect>
            <g id="编组-4" transform="translate(10.000000, 10.000000)" fill-rule="nonzero">
                <g id="编组-3">
                    <path d="M213.566755,14.1341559 L213.807197,14.2481209 C214.121857,14.3791341 214.433093,14.5254945 214.739964,14.6874548 C214.781039,14.7072638 214.821965,14.7268117 214.862884,14.7463784 L214.861,14.752 L215.120548,14.8976658 C220.41313,17.9533396 222.283539,24.6600872 219.387133,29.9996367 L219.238334,30.2654516 C216.131732,35.6462436 209.25134,37.4898391 203.870548,34.3832374 C203.66449,34.2642698 203.46362,34.139768 203.268016,34.0100279 L203.252776,34.027043 L203.252776,34.027043 C167.112116,17.7202627 123.914258,18.4531483 86.958059,39.78982 C28.0476257,73.8017745 6.54769557,147.726523 36.8948741,207.685921 C32.1178328,212.627511 27.2384392,217.671075 22.2606075,222.814576 L20.1212357,225.025046 C-21.3001205,153.281153 3.28115277,61.542592 75.0250463,20.1212357 C119.093345,-5.32160848 170.70556,-5.86189666 213.566755,14.1341559 Z" id="形状结合" fill="url(#linearGradient-2)" style="mix-blend-mode: multiply;"></path>
                    <path d="M293.566755,88.1341559 L293.807197,88.2481209 C294.121857,88.3791341 294.433093,88.5254945 294.739964,88.6874548 C294.781039,88.7072638 294.821965,88.7268117 294.862884,88.7463784 L294.861,88.752 L295.120548,88.8976658 C300.41313,91.9533396 302.283539,98.6600872 299.387133,103.999637 L299.238334,104.265452 C296.131732,109.646244 289.25134,111.489839 283.870548,108.383237 C283.66449,108.26427 283.46362,108.139768 283.268016,108.010028 L283.252776,108.027043 L283.252776,108.027043 C247.112116,91.7202627 203.914258,92.4531483 166.958059,113.78982 C108.047626,147.801775 86.5476956,221.726523 116.894874,281.685921 C112.117833,286.627511 107.238439,291.671075 102.260608,296.814576 L100.121236,299.025046 C58.6998795,227.281153 83.2811528,135.542592 155.025046,94.1212357 C199.093345,68.6783915 250.70556,68.1381033 293.566755,88.1341559 Z" id="形状结合" fill="url(#linearGradient-2)" style="mix-blend-mode: multiply;" transform="translate(190.373713, 186.512523) scale(-1, -1) translate(-190.373713, -186.512523) "></path>
                    <g id="编组备份" transform="translate(61.121236, 60.372666)" fill="url(#linearGradient-4)">
                        <ellipse id="椭圆形" style="mix-blend-mode: multiply;" transform="translate(89.000000, 89.000000) rotate(-45.000000) translate(-89.000000, -89.000000) " cx="89" cy="89" rx="95.8971482" ry="29.9678588"></ellipse>
                        <ellipse id="椭圆形" style="mix-blend-mode: multiply;" transform="translate(89.000000, 89.000000) rotate(-315.000000) translate(-89.000000, -89.000000) " cx="89" cy="89" rx="95.8971482" ry="29.9678588"></ellipse>
                    </g>
                </g>
            </g>
        </g>
    </g>
</svg>
